<?xml version="1.0" encoding="UTF-8"?>
<svg id="Layer_1" data-name="Layer 1" xmlns="http://www.w3.org/2000/svg" version="1.1" viewBox="0 0 16 16">
  <defs>
    <style>
      .cls-1 {
        fill-rule: evenodd;
      }

      .cls-1, .cls-2 {
        fill: #fff;
        stroke-width: 0px;
      }

      .cls-3 {
        display: none;
      }
    </style>
  </defs>
  <g id="Background" class="cls-3">
    <rect id="BG" class="cls-2" x="-952" y="-952" width="1920" height="1920"/>
  </g>
  <g id="Logo">
    <path class="cls-1" d="M11.63,15.49c-.5.1-.68-.22-.68-.49,0-.33.02-1.42.02-2.77,0-.95-.31-1.55-.68-1.87,2.23-.25,4.56-1.1,4.56-4.96,0-1.1-.38-2-1.03-2.7.1-.25.45-1.28-.1-2.67,0,0-.84-.27-2.74,1.03-.79-.22-1.65-.33-2.5-.33-.84,0-1.68.11-2.5.33C4.09-.22,3.25.04,3.25.04c-.55,1.38-.2,2.42-.1,2.67-.63.7-1.03,1.6-1.03,2.7,0,3.86,2.33,4.73,4.55,4.96-.28.25-.55.7-.63,1.35-.58.27-2.02.7-2.91-.83,0,0-.53-.97-1.54-1.03,0,0-.98,0-.07.62,0,0,.66.3,1.11,1.47,0,0,.58,1.8,3.36,1.2,0,.83.02,1.63.02,1.87,0,.27-.18.59-.68.49h0c.99.33,2.05.51,3.15.51s2.16-.18,3.15-.51h0Z"/>
  </g>
</svg>